<?xml version="1.0"?>
<!-- Generated by SVGo -->
<svg width="188" height="400"
     xmlns="http://www.w3.org/2000/svg"
     xmlns:xlink="http://www.w3.org/1999/xlink">
<g style="font-family:sans-serif">
<filter id="textBG" >
<feFlood  flood-fill-color="black" flood-fill-opacity="0" />
</filter>
<rect x="25" y="25" width="158" height="370" style="fill:white;stroke:rgb(35,53,76);stroke-width:2"/>
<rect x="37" y="37" width="134" height="346" style="fill:rgb(135,175,199);stroke:rgb(35,53,76);stroke-width:2"/>
<line x1="25" y1="25" x2="37" y2="37" style="fill:none;stroke:rgb(35,53,76);stroke-width:2"/>
<line x1="183" y1="25" x2="171" y2="37" style="fill:none;stroke:rgb(35,53,76);stroke-width:2"/>
<line x1="25" y1="395" x2="37" y2="383" style="fill:none;stroke:rgb(35,53,76);stroke-width:2"/>
<line x1="183" y1="395" x2="171" y2="383" style="fill:none;stroke:rgb(35,53,76);stroke-width:2"/>
<line x1="5" y1="25" x2="19" y2="25" style="fill:rgb(135,175,199);stroke:rgb(35,53,76);stroke-width:2"/>
<line x1="5" y1="395" x2="19" y2="395" style="fill:rgb(135,175,199);stroke:rgb(35,53,76);stroke-width:2"/>
<defs>
<text x="5" y="210" style="text-anchor:middle;font-size:20px" transform="rotate(270, 15,205)"  id="tM00" >2100</text>
</defs>
<mask id="mM00" x="0" y="0" width="400" height="400"  maskUnits="userSpaceOnUse" ><rect x="0" y="0" width="400" height="400" style="fill:white"/>
<use x="0" y="0" xlink:href="#tM00"  filter="url(#textBG)" />
</mask>
<line x1="12" y1="25" x2="12" y2="395" style="fill:rgb(35,53,76);stroke:rgb(35,53,76);stroke-width:2" mask="url(#mM00)" />
<use x="0" y="0" xlink:href="#tM00" style="fill:black;stroke:black"/>
<line x1="25" y1="5" x2="25" y2="19" style="fill:rgb(135,175,199);stroke:rgb(35,53,76);stroke-width:2"/>
<line x1="183" y1="5" x2="183" y2="19" style="fill:rgb(135,175,199);stroke:rgb(35,53,76);stroke-width:2"/>
<defs>
<text x="104" y="19" style="text-anchor:middle;font-size:20px" id="tM10" >900</text>
</defs>
<mask id="mM10" x="0" y="0" width="400" height="400"  maskUnits="userSpaceOnUse" ><rect x="0" y="0" width="400" height="400" style="fill:white"/>
<use x="0" y="0" xlink:href="#tM10"  filter="url(#textBG)" />
</mask>
<line x1="25" y1="11" x2="183" y2="11" style="fill:rgb(35,53,76);stroke:rgb(35,53,76);stroke-width:2" mask="url(#mM10)" />
<use x="0" y="0" xlink:href="#tM10" style="fill:black;stroke:black"/>
<rect x="31" y="31" width="146" height="358" style="fill:white;stroke:rgb(35,53,76);stroke-width:2"/>
<rect x="43" y="43" width="122" height="334" style="fill:rgb(135,175,199);stroke:rgb(35,53,76);stroke-width:2"/>
<line x1="31" y1="31" x2="43" y2="43" style="fill:none;stroke:rgb(35,53,76);stroke-width:2"/>
<line x1="177" y1="31" x2="165" y2="43" style="fill:none;stroke:rgb(35,53,76);stroke-width:2"/>
<line x1="31" y1="389" x2="43" y2="377" style="fill:none;stroke:rgb(35,53,76);stroke-width:2"/>
<line x1="177" y1="389" x2="165" y2="377" style="fill:none;stroke:rgb(35,53,76);stroke-width:2"/>
<rect x="168" y="202" width="5" height="17" style="fill:white;stroke:rgb(35,53,76);stroke-width:1"/>
<rect x="169" y="210" width="2" height="14" style="fill:white;stroke:rgb(35,53,76);stroke-width:1"/>
<line x1="43" y1="43" x2="165" y2="210" style="fill:none;stroke:rgb(35,53,76);stroke-width:2"/>
<line x1="43" y1="377" x2="165" y2="210" style="fill:none;stroke:rgb(35,53,76);stroke-width:2"/>
<line x1="43" y1="377" x2="104" y2="43" style="fill:none;stroke:rgb(35,53,76);stroke-width:2"/>
<line x1="104" y1="43" x2="165" y2="377" style="fill:none;stroke:rgb(35,53,76);stroke-width:2"/>
<text x="104" y="219" style="text-anchor:middle;font-size:25px">1</text>
</g>
</svg>
